<?xml version="1.0" encoding="UTF-8"?>
<svg width="400" height="76" version="1.1" viewBox="0 0 105.83 20.108" xml:space="preserve" xmlns="http://www.w3.org/2000/svg"><g transform="matrix(.50845 0 0 .50845 7.5226 -74.52)"><g transform="matrix(1.9668 0 0 1.9668 -60.588 -61.587)" stroke-width=".26458" aria-label="K    dePen"><circle transform="matrix(.50845 0 0 .50845 30.806 31.314)" cx="37.125" cy="166.74" r="16.429" fill="#fff" stroke-width=".26458"/><path transform="matrix(.50845 0 0 .50845 30.806 31.314)" d="m32.433 156.29c-1.5587 1.5587-3.1175 3.1175-4.6762 4.6762h4.6762v-4.6762zm0.77928 0c-0.03881 1.6582 0.07899 3.332-0.06132 4.9801-0.52133 0.7908-1.5892 0.36861-2.3914 0.47594h-3.0033c-1.63e-4 5.1959-4.6e-5 10.392 0 15.588 0.13484 1.1034 1.4062 0.70464 2.1734 0.77928h13.414c1.1034-0.13484 0.70464-1.4062 0.77928-2.1734v-10.754c-1.1524 1.1198-2.2419 2.3108-3.4356 3.384-1.0725 0.47601-2.265 0.61605-3.3893 0.94648-0.88131-0.15193-1.0756-1.087-2.1746-0.75602-1.5959-0.0201-3.1999 0.0404-4.7908-0.0306-0.75416-0.82887 0.72718-0.80477 1.2671-0.74869h4.9004c0.05408-0.48457 0.43826-1.2268 0.29722-1.5591-2.154-0.0202-4.3162 0.0405-6.4651-0.0306-0.75334-0.82922 0.7271-0.80463 1.267-0.74869h5.4885c0.04858-0.63597 1.1107-1.2034 1.1638-1.5591-2.6387-0.0204-5.2856 0.0408-7.9193-0.0306-0.75334-0.82922 0.72711-0.80463 1.267-0.74869h7.525c1.6664-1.6664 3.3328-3.3328 4.9992-4.9992-0.03454-0.74476 0.25928-2.0184-0.87222-2.0154-3.3464 1e-5 -6.6928 3e-5 -10.039 4e-5zm14.714 0c-1.0531 0.0521-2.2948 1.1497-0.65703 1.41 1.0401 0.32492 1.1599 2.7578 2.0384 1.1532 0.74014-1.0416-0.10266-2.6084-1.3813-2.5632zm-2.2789 1.5947c-2.3811 2.3811-4.7622 4.7622-7.1432 7.1432 1.285 0.0286 1.9821 2.0216 2.5355 2.1412 2.3154-2.3154 4.6307-4.6307 6.9461-6.9461-0.1397-1.1936-1.1444-2.1986-2.3384-2.3384zm-7.7675 7.7964c-0.25666 1.0263-0.51332 2.0526-0.76998 3.0789 1.0265-0.25649 2.0529-0.51297 3.0794-0.76946-0.14967-1.1738-1.1353-2.1597-2.3094-2.3094zm-1.1534 5.4167c0.78946 0.27409 0.02164 1.1925-0.04865 1.7481-0.38238 1.1473-0.76476 2.2945-1.1471 3.4418-0.98718 0.8107-0.70707-0.79005-0.38633-1.3046 0.40197-1.2061 0.80394-2.4121 1.2059-3.6182l0.14614-0.19669zm-3.1244 5.2e-4c0.94122 0.36417-0.23607 1.1126-0.57879 1.5195-0.40273 0.40282-0.80546 0.80565-1.2082 1.2085 0.70794 0.73706 1.4799 1.4217 2.148 2.1914-0.05324 1.1194-1.0829 0.0552-1.4251-0.36619-0.52981-0.62272-1.2989-1.1039-1.6639-1.8252 0.39857-0.75092 1.1946-1.2656 1.7571-1.9184 0.32503-0.25815 0.55345-0.71018 0.97085-0.80962zm4.6767 0c0.75091 0.39861 1.2656 1.1946 1.9184 1.7571 0.43241 0.3952 1.2212 1.0246 0.43206 1.5092-0.74117 0.71247-1.4303 1.4885-2.2042 2.1611-1.1191-0.0535-0.05514-1.0834 0.36649-1.4255 0.42474-0.42463 0.84948-0.84926 1.2742-1.2739-0.70796-0.73719-1.4798-1.4221-2.148-2.1918-0.10917-0.2441 0.09369-0.54559 0.36106-0.53619z" stroke-width=".044537"/><path d="m27.246 108.01v15.805h3.1156v-7.4058l5.6446 7.4058h3.59l-6.0735-8.1282 5.8477-7.6765h-3.59l-5.4188 6.9768v-6.9768zm43.297 0v5.8477c-0.85796-1.0988-2.0772-1.648-3.6577-1.648-1.5202 0-2.822 0.57941-3.9057 1.7384-1.0687 1.1439-1.6035 2.5512-1.6035 4.222 0 1.6708 0.53484 3.0857 1.6035 4.2447 1.0837 1.1439 2.3855 1.7162 3.9057 1.7162 1.5804 0 2.7997-0.54969 3.6577-1.6485v1.3322h2.9125v-15.805zm18.83 0v15.805h3.1156v-5.193h2.7771c1.5202 0 2.7999-0.51179 3.8385-1.5353 1.0386-1.0235 1.5575-2.2802 1.5575-3.7703 0-1.4901-0.51895-2.7473-1.5575-3.7708-1.0386-1.0235-2.3183-1.5353-3.8385-1.5353zm3.1156 2.913h2.7771c0.66228 0 1.212 0.2254 1.6485 0.67696s0.65474 1.0238 0.65474 1.7162c0 0.67733-0.21824 1.249-0.65474 1.7156-0.4365 0.45156-0.9862 0.67748-1.6485 0.67748h-2.7771zm-10.995 1.2867c-1.746 0-3.1758 0.57172-4.2897 1.7157-1.1138 1.1289-1.6707 2.5438-1.6707 4.2447 0 1.7159 0.56403 3.1386 1.6929 4.2674 1.1289 1.1289 2.6268 1.6934 4.4933 1.6934 2.1675 0 3.8078-0.80532 4.9217-2.4159l-2.3477-1.355c-0.57197 0.75259-1.4152 1.1291-2.529 1.1291-1.731 0-2.7919-0.70748-3.1833-2.1224h8.5116c0.07526-0.42145 0.11317-0.82053 0.11317-1.1968 0-1.6858-0.54201-3.1008-1.6257-4.2447-1.0687-1.1439-2.4309-1.7157-4.0866-1.7157zm25.694 0c-1.746 0-3.1758 0.57172-4.2897 1.7157-1.1138 1.1289-1.6712 2.5438-1.6712 4.2447 0 1.7159 0.56454 3.1386 1.6934 4.2674 1.1289 1.1289 2.6268 1.6934 4.4933 1.6934 2.1675 0 3.8078-0.80532 4.9217-2.4159l-2.3482-1.355c-0.57197 0.75259-1.4147 1.1291-2.5285 1.1291-1.731 0-2.7919-0.70748-3.1833-2.1224h8.5116c0.0753-0.42145 0.11317-0.82053 0.11317-1.1968 0-1.6858-0.54201-3.1008-1.6257-4.2447-1.0687-1.1439-2.4309-1.7157-4.0866-1.7157zm14.021 0c-1.5353 0-2.6567 0.52664-3.3641 1.5803v-1.264h-2.9125v11.289h2.9125v-6.0963c0-0.93321 0.22592-1.633 0.67748-2.0996s1.0535-0.6997 1.8061-0.6997c0.67733 0 1.2193 0.20287 1.6257 0.60926 0.4064 0.39136 0.60926 0.96359 0.60926 1.7162v6.5701h2.9125v-6.9314c0-1.46-0.40625-2.604-1.219-3.4318-0.79775-0.82785-1.8136-1.2418-3.0479-1.2418zm-39.714 2.619c0.66228 0 1.2494 0.188 1.7611 0.5643 0.52681 0.3763 0.87312 0.94853 1.0387 1.7162h-5.7578c0.16557-0.72249 0.5042-1.2794 1.016-1.6707 0.51176-0.4064 1.1593-0.60978 1.942-0.60978zm25.694 0c0.66228 0 1.2494 0.188 1.7611 0.5643 0.52681 0.3763 0.87312 0.94853 1.0387 1.7162h-5.7578c0.16556-0.72249 0.50471-1.2794 1.0165-1.6707 0.51176-0.4064 1.1588-0.60978 1.9415-0.60978zm-39.759 0.15813c0.90311 0 1.648 0.30123 2.235 0.9033 0.58702 0.58702 0.88057 1.3467 0.88057 2.28s-0.29354 1.7012-0.88057 2.3032c-0.58702 0.58703-1.3319 0.88057-2.235 0.88057s-1.6557-0.29354-2.2577-0.88057c-0.58702-0.60207-0.88057-1.37-0.88057-2.3032s0.29354-1.6929 0.88057-2.28c0.60207-0.60207 1.3546-0.9033 2.2577-0.9033z" fill="#fff"/></g></g></svg>
